<svg xmlns="http://www.w3.org/2000/svg" viewBox="0 0 54 54" width="54" height="54">
    <g fill="none" stroke="#FFFFFF" stroke-linejoin="round" stroke-width="2" transform="translate(9 2)">
        <path stroke-linecap="round" d="M2.81 27.96A18.12 18.12 0 0 1 6.46 4.4a18.67 18.67 0 0 1 24.12.03A18.12 18.12 0 0 1 34.16 28"></path>
        <path d="M13.81 16.84a2.82 2.82 0 0 1 2.8-2.84c1.55 0 2.8 1.27 2.8 2.84v13.51l11 3.33A3.65 3.65 0 0 1 32.9 38s-2.1 11.36-2.39 13H13.36L4.78 37.96c-3.4-5.28 5.15-7.11 9.02 1.67l.01-22.79z"></path>
    </g>
</svg>