<svg xmlns="http://www.w3.org/2000/svg" viewBox="0 0 140 52" width="140" height="52">
    <g>
        <path fill="#1F2E41" d="M57.2 36V21.93h-4.68v-4.52h15.31v4.52h-4.7V36H57.2zm22.1.34c-5.43 0-8.5-2.7-8.5-8.01V17.41h5.88V28.1c0 2.41.52 3.61 2.63 3.61 2.08 0 2.6-1.2 2.6-3.64V17.41h5.93v10.87c0 5.59-3.33 8.06-8.53 8.06zM91.96 36V17.41h7.41c5.36 0 7.65 2.4 7.65 6.37v.1c0 3.88-2.58 6.06-7.39 6.06h-1.8V36h-5.87zm5.88-10.01h1.22c1.56 0 2.37-.7 2.37-2.08v-.1c0-1.43-.8-2-2.34-2h-1.25v4.18zM110.08 36V17.41h5.9v14.04h6.77V36h-12.67zm16 0V17.41h13.21v4.52h-7.33v2.63h5.82v4.13h-5.82v2.79h7.75V36h-13.63z"></path>
        <polygon fill="#BFC6F1" points="8 18 32 10 32 52 8 44"></polygon>
        <polygon fill="#4652AF" points="0 8 24 0 24 42 0 34"></polygon>
    </g>
</svg>